<?xml version="1.0" encoding="utf-8"?>
<!-- Generator: Adobe Illustrator 15.0.2, SVG Export Plug-In  -->
<!DOCTYPE svg PUBLIC "-//W3C//DTD SVG 1.1//EN" "http://www.w3.org/Graphics/SVG/1.1/DTD/svg11.dtd" [
	<!ENTITY ns_flows "http://ns.adobe.com/Flows/1.0/">
]>
<svg version="1.1"
	 xmlns="http://www.w3.org/2000/svg" xmlns:xlink="http://www.w3.org/1999/xlink" xmlns:a="http://ns.adobe.com/AdobeSVGViewerExtensions/3.0/"
	 x="0px" y="0px" width="24px" height="24px" viewBox="0 0 24 24" overflow="visible" enable-background="new 0 0 24 24"
	 xml:space="preserve">
<defs>
</defs>
<g>
	<g>
		<path d="M3.75,15C3.335,15,3,15.337,3,15.75c0,0.415,0.335,0.75,0.75,0.75s0.75-0.335,0.75-0.75C4.5,15.337,4.165,15,3.75,15z
			 M19.5,0h-15C2.014,0,0,2.016,0,4.5v15C0,21.985,2.014,24,4.5,24h15c2.485,0,4.5-2.015,4.5-4.5v-15C24,2.016,21.985,0,19.5,0z
			 M21,19.5c0,0.829-0.671,1.5-1.5,1.5h-15C3.671,21,3,20.329,3,19.5V18c-0.829,0-1.5-0.671-1.5-1.5V15c0-0.828,0.671-1.5,1.5-1.5
			v-3c-0.829,0-1.5-0.671-1.5-1.5V7.5C1.5,6.672,2.171,6,3,6V4.5C3,3.672,3.671,3,4.5,3h15C20.329,3,21,3.672,21,4.5V19.5z M18,4.5
			H6C5.171,4.5,4.5,5.172,4.5,6C5.329,6,6,6.672,6,7.5V9c0,0.829-0.671,1.5-1.5,1.5v3C5.329,13.5,6,14.172,6,15v1.5
			C6,17.329,5.329,18,4.5,18c0,0.829,0.671,1.5,1.5,1.5h12c0.829,0,1.5-0.671,1.5-1.5V6C19.5,5.172,18.829,4.5,18,4.5z M12,16.5
			c-2.486,0-4.5-2.015-4.5-4.5c0-2.484,2.014-4.5,4.5-4.5c2.485,0,4.5,2.016,4.5,4.5C16.5,14.485,14.485,16.5,12,16.5z M3.75,9
			C4.165,9,4.5,8.665,4.5,8.25c0-0.413-0.335-0.75-0.75-0.75S3,7.837,3,8.25C3,8.665,3.335,9,3.75,9z M12,9c-1.657,0-3,1.343-3,3
			c0,1.658,1.343,3,3,3c1.657,0,3-1.342,3-3C15,10.343,13.657,9,12,9z"/>
	</g>
</g>
</svg>
