<?xml version="1.0" encoding="utf-8"?>
<!-- Generator: Adobe Illustrator 15.0.2, SVG Export Plug-In  -->
<!DOCTYPE svg PUBLIC "-//W3C//DTD SVG 1.1//EN" "http://www.w3.org/Graphics/SVG/1.1/DTD/svg11.dtd" [
	<!ENTITY ns_flows "http://ns.adobe.com/Flows/1.0/">
]>
<svg version="1.1"
	 xmlns="http://www.w3.org/2000/svg" xmlns:xlink="http://www.w3.org/1999/xlink" xmlns:a="http://ns.adobe.com/AdobeSVGViewerExtensions/3.0/"
	 x="0px" y="0px" width="24px" height="24px" viewBox="0 -0.109 24 24" overflow="visible" enable-background="new 0 -0.109 24 24"
	 xml:space="preserve">
<defs>
</defs>
<path d="M3.08,0h17.84C22.613,0,24,1.373,24,3.052v17.679c0,1.678-1.387,3.051-3.08,3.051H3.08c-1.694,0-3.08-1.373-3.08-3.051
	V3.052C0,1.373,1.386,0,3.08,0L3.08,0z M17.483,2.642c-0.595,0-1.081,0.481-1.081,1.071v2.562c0,0.59,0.486,1.071,1.081,1.071h2.712
	c0.595,0,1.081-0.481,1.081-1.071V3.713c0-0.59-0.486-1.071-1.081-1.071H17.483L17.483,2.642z M21.287,10.057h-2.112
	c0.2,0.647,0.308,1.332,0.308,2.041c0,3.956-3.34,7.163-7.46,7.163s-7.46-3.207-7.46-7.163c0-0.708,0.108-1.394,0.309-2.041H2.666
	v10.047c0,0.52,0.43,0.945,0.955,0.945h16.713c0.524,0,0.953-0.426,0.953-0.945V10.057L21.287,10.057z M12.022,7.211
	c-2.662,0-4.819,2.072-4.819,4.627c0,2.556,2.157,4.628,4.819,4.628s4.821-2.072,4.821-4.628
	C16.844,9.284,14.685,7.211,12.022,7.211z"/>
</svg>
