<?xml version="1.0" encoding="utf-8"?>
<!-- Generator: Adobe Illustrator 15.0.2, SVG Export Plug-In  -->
<!DOCTYPE svg PUBLIC "-//W3C//DTD SVG 1.1//EN" "http://www.w3.org/Graphics/SVG/1.1/DTD/svg11.dtd" [
	<!ENTITY ns_flows "http://ns.adobe.com/Flows/1.0/">
]>
<svg version="1.1"
	 xmlns="http://www.w3.org/2000/svg" xmlns:xlink="http://www.w3.org/1999/xlink" xmlns:a="http://ns.adobe.com/AdobeSVGViewerExtensions/3.0/"
	 x="0px" y="0px" width="24px" height="24px" viewBox="-2.999 0 24 24" overflow="visible" enable-background="new -2.999 0 24 24"
	 xml:space="preserve">
<defs>
</defs>
<g>
	<g>
		<path d="M9.001,0C4.03,0,0,4.029,0,8.999C0,13.972,7.546,24,9.001,24c1.408,0,9.001-10.028,9.001-15.001
			C18.002,4.029,13.972,0,9.001,0z M9.001,15C5.688,15,3,12.314,3,8.999c0-3.313,2.688-6,6.001-6s6,2.687,6,6
			C15.001,12.314,12.314,15,9.001,15z M9.001,5.999c-1.657,0-3,1.344-3,3c0,1.658,1.343,3.001,3,3.001s3-1.343,3-3.001
			C12.001,7.343,10.658,5.999,9.001,5.999z"/>
	</g>
</g>
</svg>
