<?xml version="1.0" encoding="utf-8"?>
<!-- Generator: Adobe Illustrator 15.0.2, SVG Export Plug-In  -->
<!DOCTYPE svg PUBLIC "-//W3C//DTD SVG 1.1//EN" "http://www.w3.org/Graphics/SVG/1.1/DTD/svg11.dtd" [
	<!ENTITY ns_flows "http://ns.adobe.com/Flows/1.0/">
]>
<svg version="1.1"
	 xmlns="http://www.w3.org/2000/svg" xmlns:xlink="http://www.w3.org/1999/xlink" xmlns:a="http://ns.adobe.com/AdobeSVGViewerExtensions/3.0/"
	 x="0px" y="0px" width="24px" height="24px" viewBox="-3.247 0 24 24" overflow="visible" enable-background="new -3.247 0 24 24"
	 xml:space="preserve">
<defs>
</defs>
<path d="M9.942,0C3.333,0,0,4.696,0,8.611c0,2.371,0.906,4.479,2.849,5.267c0.318,0.129,0.604,0.004,0.696-0.346
	c0.064-0.241,0.216-0.852,0.284-1.105c0.093-0.346,0.057-0.467-0.2-0.769c-0.56-0.654-0.918-1.502-0.918-2.703
	c0-3.484,2.63-6.603,6.849-6.603c3.736,0,5.789,2.262,5.789,5.283c0,3.975-1.775,7.329-4.411,7.329
	c-1.455,0-2.544-1.192-2.195-2.654C9.161,10.563,9.97,8.678,9.97,7.417c0-1.128-0.61-2.069-1.875-2.069
	c-1.488,0-2.683,1.525-2.683,3.568c0,1.301,0.443,2.181,0.443,2.181s-1.522,6.393-1.79,7.511c-0.531,2.23-0.08,4.964-0.042,5.239
	c0.022,0.164,0.235,0.203,0.331,0.078c0.137-0.177,1.909-2.345,2.512-4.511c0.17-0.613,0.979-3.789,0.979-3.789
	c0.483,0.914,1.896,1.719,3.397,1.719c4.473,0,7.506-4.041,7.506-9.447C18.749,3.808,15.254,0,9.942,0z"/>
</svg>
