<?xml version="1.0" encoding="utf-8"?>
<!-- Generator: Adobe Illustrator 15.0.2, SVG Export Plug-In  -->
<!DOCTYPE svg PUBLIC "-//W3C//DTD SVG 1.1//EN" "http://www.w3.org/Graphics/SVG/1.1/DTD/svg11.dtd" [
	<!ENTITY ns_flows "http://ns.adobe.com/Flows/1.0/">
]>
<svg version="1.1"
	 xmlns="http://www.w3.org/2000/svg" xmlns:xlink="http://www.w3.org/1999/xlink" xmlns:a="http://ns.adobe.com/AdobeSVGViewerExtensions/3.0/"
	 x="0px" y="0px" width="24px" height="24px" viewBox="0 0 24 24" overflow="visible" enable-background="new 0 0 24 24"
	 xml:space="preserve">
<defs>
</defs>
<path d="M24,9c0,1.657-1.344,3-3,3c1.656,0,3,1.344,3,3s-1.344,3-3,3c1.656,0,3,1.344,3,3s-1.344,3-3,3s-3-1.344-3-3
	c0,1.656-1.344,3-3,3s-3-1.344-3-3c0,1.656-1.343,3-3,3s-3-1.344-3-3l0,0c0,1.656-1.343,3-3,3s-3-1.344-3-3s1.343-3,3-3
	c-1.657,0-3-1.344-3-3s1.343-3,3-3c-1.657,0-3-1.343-3-3s1.343-3,3-3l0,0C1.343,6,0,4.657,0,3s1.343-3,3-3s3,1.343,3,3
	c0-1.657,1.343-3,3-3s3,1.343,3,3c0-1.657,1.344-3,3-3s3,1.343,3,3c0-1.657,1.344-3,3-3s3,1.343,3,3s-1.344,3-3,3l0,0
	C22.656,6,24,7.343,24,9z M19.5,4.5h-15v15h15V4.5z M12,6c3.313,0,6,2.687,6,6v2.25c0,1.244-1.008,2.25-2.25,2.25
	c-1.135,0-2.036-0.854-2.189-1.948C13.104,14.83,12.574,15,12,15c-1.657,0-3-1.344-3-3c0-1.657,1.343-3,3-3c1.656,0,3,1.343,3,3
	v2.25c0,0.414,0.336,0.75,0.75,0.75s0.75-0.336,0.75-0.75V12c0-2.484-2.014-4.5-4.5-4.5c-2.486,0-4.5,2.016-4.5,4.5
	c0,2.486,2.014,4.5,4.5,4.5h0.75c0.414,0,0.75,0.337,0.75,0.75c0,0.414-0.336,0.75-0.75,0.75h-1.5c-0.139,0-0.261-0.047-0.372-0.113
	C8.102,17.361,6,14.93,6,12C6,8.687,8.687,6,12,6z M12,10.5c-0.829,0-1.5,0.672-1.5,1.5c0,0.829,0.671,1.5,1.5,1.5
	s1.5-0.671,1.5-1.5C13.5,11.172,12.829,10.5,12,10.5z"/>
</svg>
