<?xml version="1.0" encoding="utf-8"?>
<!-- Generator: Adobe Illustrator 15.0.2, SVG Export Plug-In  -->
<!DOCTYPE svg PUBLIC "-//W3C//DTD SVG 1.1//EN" "http://www.w3.org/Graphics/SVG/1.1/DTD/svg11.dtd" [
	<!ENTITY ns_flows "http://ns.adobe.com/Flows/1.0/">
]>
<svg version="1.1"
	 xmlns="http://www.w3.org/2000/svg" xmlns:xlink="http://www.w3.org/1999/xlink" xmlns:a="http://ns.adobe.com/AdobeSVGViewerExtensions/3.0/"
	 x="0px" y="0px" width="24px" height="24px" viewBox="0 0 24 24" overflow="visible" enable-background="new 0 0 24 24"
	 xml:space="preserve">
<defs>
</defs>
<g>
	<g>
		<path d="M3,12v9h18v-9c-1.157,0-2.203-0.45-2.999-1.167v7.168H6v-7.168C5.203,11.55,4.158,12,3,12z M21,0H3L0,7.501
			C0,9.158,1.343,10.5,3,10.5c1.657,0,3-1.342,3-2.999C6,9.158,7.344,10.5,9,10.5c1.656,0,3-1.342,3-2.999
			c0,1.657,1.343,2.999,3.001,2.999c1.655,0,3-1.342,3-2.999c0,1.657,1.342,2.999,2.999,2.999c1.655,0,3-1.342,3-2.999L21,0z
			 M1.5,24h20.999v-1.501H1.5V24z"/>
	</g>
</g>
</svg>
