<?xml version="1.0" encoding="utf-8"?>
<!-- Generator: Adobe Illustrator 15.0.2, SVG Export Plug-In  -->
<!DOCTYPE svg PUBLIC "-//W3C//DTD SVG 1.1//EN" "http://www.w3.org/Graphics/SVG/1.1/DTD/svg11.dtd" [
	<!ENTITY ns_flows "http://ns.adobe.com/Flows/1.0/">
]>
<svg version="1.1"
	 xmlns="http://www.w3.org/2000/svg" xmlns:xlink="http://www.w3.org/1999/xlink" xmlns:a="http://ns.adobe.com/AdobeSVGViewerExtensions/3.0/"
	 x="0px" y="0px" width="219px" height="54px" viewBox="0 0 219 54" overflow="visible" enable-background="new 0 0 219 54"
	 xml:space="preserve">
<defs>
</defs>
<polygon fill="#1D1D1B" points="12.15,9.912 12.15,5.886 12.134,5.886 10.878,9.912 10.057,9.912 8.801,5.886 8.785,5.886 
	8.785,9.912 7.781,9.912 7.781,4.282 9.272,4.282 10.475,8.269 10.49,8.269 11.693,4.282 13.17,4.282 13.17,9.912 "/>
<path fill="#1D1D1B" d="M16.996,5.491h-0.014l-0.693,2.245h1.398L16.996,5.491z M18.351,9.912l-0.388-1.271h-1.947l-0.389,1.271
	h-1.12l1.858-5.63h1.248l1.855,5.63H18.351z"/>
<path fill="#1D1D1B" d="M22.948,5.231h-1.034v1.576h1.057c0.621,0,0.982-0.206,0.982-0.782C23.953,5.469,23.633,5.231,22.948,5.231
	 M23.959,7.537l1.043,2.375h-1.179l-0.952-2.206h-0.957v2.206h-1.106V4.281h2.17c1.538,0,2.069,0.753,2.069,1.758
	C25.047,6.83,24.599,7.303,23.959,7.537"/>
<polygon fill="#1D1D1B" points="28.647,5.263 28.647,9.912 27.543,9.912 27.543,5.263 25.961,5.263 25.961,4.282 30.231,4.282 
	30.231,5.263 "/>
<polygon fill="#1D1D1B" points="34.842,9.912 34.842,7.485 32.719,7.485 32.719,9.912 31.615,9.912 31.615,4.282 32.719,4.282 
	32.719,6.503 34.842,6.503 34.842,4.282 35.945,4.282 35.945,9.912 "/>
<path fill="#1D1D1B" d="M39.927,5.491H39.91l-0.693,2.245h1.4L39.927,5.491z M41.28,9.912l-0.389-1.271h-1.948l-0.387,1.271h-1.12
	l1.856-5.63h1.25l1.855,5.63H41.28z"/>
<path fill="#1D1D1B" d="M47.398,10.019c-1.225,0-1.828-0.532-2.154-1.294l0.937-0.373c0.243,0.466,0.593,0.77,1.248,0.77
	c0.687,0,0.99-0.266,0.99-0.716c0-0.456-0.351-0.64-1.089-0.868c-1.156-0.365-1.941-0.661-1.941-1.764c0-1.006,0.846-1.6,1.973-1.6
	c1.064,0,1.666,0.457,1.985,1.035l-0.875,0.45c-0.28-0.365-0.616-0.586-1.096-0.586c-0.655,0-0.907,0.265-0.907,0.607
	c0,0.396,0.262,0.54,1.051,0.784c1.43,0.426,1.979,0.875,1.979,1.826C49.499,9.243,48.791,10.019,47.398,10.019"/>
<polygon fill="#1D1D1B" points="52.953,5.263 52.953,9.912 51.85,9.912 51.85,5.263 50.269,5.263 50.269,4.282 54.537,4.282 
	54.537,5.263 "/>
<polygon fill="#1D1D1B" points="55.77,9.912 55.77,4.282 59.492,4.282 59.492,5.256 56.874,5.256 56.874,6.465 58.607,6.465 
	58.607,7.432 56.874,7.432 56.874,8.938 59.528,8.938 59.528,9.912 "/>
<polygon fill="#1D1D1B" points="65.815,9.912 64.985,9.912 63.92,5.955 63.905,5.955 62.838,9.912 62.025,9.912 60.686,4.282 
	61.76,4.282 62.488,7.835 62.504,7.835 63.448,4.282 64.407,4.282 65.351,7.835 65.366,7.835 66.096,4.282 67.153,4.282 "/>
<path fill="#1D1D1B" d="M70.123,5.491h-0.017l-0.692,2.245h1.399L70.123,5.491z M71.477,9.912L71.09,8.641h-1.949l-0.389,1.271
	h-1.117l1.855-5.63h1.248l1.857,5.63H71.477z"/>
<path fill="#1D1D1B" d="M76.072,5.231h-1.035v1.576h1.059c0.625,0,0.982-0.206,0.982-0.782C77.078,5.469,76.758,5.231,76.072,5.231
	 M77.085,7.537l1.042,2.375h-1.18l-0.949-2.206h-0.961v2.206h-1.103V4.281h2.168c1.538,0,2.071,0.753,2.071,1.758
	C78.174,6.83,77.725,7.303,77.085,7.537"/>
<polygon fill="#1D1D1B" points="81.926,5.263 81.926,9.912 80.82,9.912 80.82,5.263 79.24,5.263 79.24,4.282 83.507,4.282 
	83.507,5.263 "/>
<polygon fill="#E40053" points="30.042,42.188 25.725,42.188 19.559,20.49 19.446,20.49 13.279,42.188 9.018,42.188 0,12.264 
	5.415,12.264 11.205,33.498 11.317,33.498 17.379,12.264 21.694,12.264 27.799,33.498 27.911,33.498 33.689,12.27 39.112,12.264 "/>
<path fill="#E40053" d="M64.842,26.884c0-7.794-4.135-14.798-12.713-14.798c-7.455,0-12.797,5.827-12.797,15.303
	c0,10.764,6.393,15.417,13.176,15.417c5.72,0,9.308-2.523,12.055-6.277l-3.532-2.747c-2.299,3.082-4.709,4.652-8.297,4.652
	c-4.542,0-7.683-3.702-7.851-10.204h19.903C64.842,28.005,64.842,27.164,64.842,26.884 M59.459,24.471H45.051
	c0.729-5.325,3.375-8.184,7.076-8.184C56.498,16.287,58.899,19.371,59.459,24.471"/>
<path fill="#E40053" d="M95.349,42.188c-0.673-1.682-1.009-4.595-1.009-8.017V0h-5.495v15.896c-2.691-2.355-5.632-3.757-9.277-3.757
	c-6.11,0-11.467,4.82-11.467,15.306c0,10.541,5.886,15.362,11.942,15.362c3.924,0,6.672-1.907,8.802-4.094
	c0.056,1.233,0.336,2.411,0.674,3.476H95.349z M88.845,34.563c-2.636,2.467-4.765,3.702-7.794,3.702c-4.204,0-7.4-3.813-7.4-10.821
	c0-7.065,2.93-10.764,7.135-10.764c2.69,0,5.368,1.177,8.06,3.811V34.563z"/>
<path fill="#E40053" d="M124.927,42.188c-0.673-1.682-1.008-4.595-1.008-8.017V0h-5.496v15.896c-2.689-2.355-5.156-3.757-8.8-3.757
	c-6.111,0-11.941,4.82-11.941,15.306c0,10.541,5.886,15.362,11.941,15.362c3.926,0,6.668-1.907,8.8-4.094
	c0.058,1.233,0.337,2.411,0.675,3.476H124.927z M118.423,34.563c-2.634,2.467-4.763,3.702-7.793,3.702
	c-4.202,0-7.399-3.813-7.399-10.821c0-7.065,3.141-10.764,7.344-10.764c2.692,0,5.159,1.177,7.849,3.811V34.563z"/>
<rect x="129.301" y="12.755" fill="#E40053" width="5.551" height="29.434"/>
<path fill="#E40053" d="M158.425,42.188V21.164c0-2.858-1.009-4.596-4.203-4.596c-3.028,0-5.607,1.568-8.805,4.596v21.024h-5.494
	V12.755h5.494v4.316c2.357-2.186,5.776-4.934,10.654-4.934c5.326,0,7.85,3.028,7.85,8.074v21.977H158.425z"/>
<path fill="#E40053" d="M207.336,42.806c-5.941,0-9.754-2.467-11.941-5.213l3.645-3.084c1.906,2.241,4.708,3.98,8.354,3.98
	c4.429,0,6.391-1.626,6.391-4.093c0-2.749-1.85-4.037-7.23-5.271c-6.897-1.626-10.148-3.588-10.148-8.858
	c0-4.261,3.979-8.13,10.764-8.13c5.326,0,8.634,1.962,10.821,4.205l-3.197,3.588c-2.187-2.242-4.483-3.475-7.734-3.475
	c-3.59,0-5.327,1.57-5.327,3.419c0,2.3,1.401,3.419,6.277,4.54c7.233,1.74,11.158,3.815,11.158,9.421
	C219.167,38.881,215.13,42.806,207.336,42.806"/>
<path fill="#E40053" d="M167.309,22.622c0,3.623,1.693,6.633,4.746,8.513c-2.506,1.35-3.792,2.931-3.792,4.72
	c0,1.562,0.843,2.766,2.53,3.688c-3.166,1.271-4.997,3.484-4.997,6.121c0,5.06,5.035,7.844,14.177,7.844
	c9.012,0,14.179-3.225,14.179-8.851c0-4.557-3.315-7.119-9.852-7.618l-7.176-0.616c-3.191-0.296-3.773-0.838-3.773-1.802
	c0-0.794,0.622-1.536,1.794-2.148c1.252,0.45,2.736,0.685,4.212,0.685c6.044,0,12.159-3.619,12.159-10.534
	c0-1.86-0.498-3.641-1.409-5.178c1.816-0.036,3.653-0.691,5.465-1.979l0.101-0.072l-3.032-3.03l-0.07,0.049
	c-1.426,0.948-2.532,1.302-4.085,1.302c-1.09,0-2.033-0.123-2.729-0.354c-0.002,0-2.043-0.661-2.043-0.661
	c-1.189-0.416-2.818-0.665-4.356-0.665C173.37,12.033,167.309,15.671,167.309,22.622 M170.998,45.05c0-1.904,1.403-3.48,3.852-4.331
	c0.001,0.012,1.186,0.174,1.186,0.174c0.005,0,6.677,0.562,6.677,0.562c4.63,0.385,6.351,1.42,6.351,3.818
	c0,2.644-3.128,4.1-8.809,4.1C174.2,49.372,170.998,47.877,170.998,45.05 M172.679,22.622c0-4.057,2.622-6.678,6.678-6.678
	c3.999,0,6.79,2.746,6.79,6.678c0,3.989-2.663,6.566-6.79,6.566C175.426,29.188,172.679,26.489,172.679,22.622"/>
<path fill="#E40053" d="M129.251,7.072c0-1.541,1.247-2.79,2.788-2.79c1.539,0,2.789,1.249,2.789,2.79
	c0,1.54-1.25,2.788-2.789,2.788C130.498,9.86,129.251,8.612,129.251,7.072"/>
</svg>
