<?xml version="1.0" encoding="utf-8"?>
<!-- Generator: Adobe Illustrator 15.0.2, SVG Export Plug-In  -->
<!DOCTYPE svg PUBLIC "-//W3C//DTD SVG 1.1//EN" "http://www.w3.org/Graphics/SVG/1.1/DTD/svg11.dtd" [
	<!ENTITY ns_flows "http://ns.adobe.com/Flows/1.0/">
]>
<svg version="1.1"
	 xmlns="http://www.w3.org/2000/svg" xmlns:xlink="http://www.w3.org/1999/xlink" xmlns:a="http://ns.adobe.com/AdobeSVGViewerExtensions/3.0/"
	 x="0px" y="0px" width="276px" height="114px" viewBox="0 0 276 114" overflow="visible" enable-background="new 0 0 276 114"
	 xml:space="preserve">
<defs>
</defs>
<g>
	<defs>
		<rect id="SVGID_1_" width="275.609" height="114.178"/>
	</defs>
	<clipPath id="SVGID_2_">
		<use xlink:href="#SVGID_1_"  overflow="visible"/>
	</clipPath>
	<path clip-path="url(#SVGID_2_)" fill="#FFFFFF" d="M32.797,39.547h5.245c4.747-0.131,6.403-2.994,6.403-10.255
		c0-6.603-2.318-10.034-6.403-10.034h-5.245V39.547z M173.772,67.404c0,5.427,1.336,9.549,5.14,9.549
		c4.25,0,6.789-5.763,6.789-19.308c0-14.874-2.294-19.978-6.289-20.153c-3.87-0.169-5.843,3.12-5.64,9.905V67.404z M247.693,38.058
		c-4.17-0.022-5.921,4.684-6.187,10.008c-0.089,1.807-0.122,1.887,0,3.235h12.371c0.122-1.348,0.089-1.428,0-3.235
		C253.614,42.742,251.863,38.036,247.693,38.058 M84.212,37.664c-4.17-0.023-6.052,5.078-6.317,10.402
		c-0.09,1.807-0.123,1.887,0,3.235h12.371c0.122-1.348,0.089-1.428,0-3.235C90.001,42.742,88.382,37.641,84.212,37.664
		 M124.265,57.584c0,10.789,1.94,19.473,6.808,19.537c4.999,0.066,6.806-8.748,6.806-19.537c0-10.791-1.938-19.468-6.806-19.538
		C126.336,37.981,124.265,46.794,124.265,57.584 M84.325,76.979c3.394,0.018,5.185-3.17,5.877-7.228l16.303-0.007
		c-0.825-4.068-0.923-4.925-1.012-8.086l-27.454,0.005c-0.111,1.229,0.007,3.295,0.101,5.194
		C78.405,72.182,80.156,77.001,84.325,76.979 M247.811,76.979c3.394,0.018,5.185-3.207,5.877-7.264h18.587
		c-2.338,28.297-41.474,28.523-44.895,6.084v14.611h-26.984v-14.77c-2.355,14.44-10.616,16.434-14.238,16.422
		c-3.037-0.011-10.484-2.508-13.235-10.12l0.265,8.289c0.055,5.146,3.343,8.401,6.834,8.869v11.966l-31.488,0.01l-0.002-11.976
		c2.643-0.073,6.883-2.667,6.927-8.442V68.973c-0.965,5.452-5.004,23.083-24.371,23.083c-19.191,0-23.532-18.618-24.354-21.348
		c-3.585,20.284-17.073,21.403-22.996,21.327c-10.64-0.135-17.007-7.455-17.164-7.615c-6.401-6.5-7.632-16.344-7.374-26.957
		c0-2.136,0.547-6.287,0.739-8.328c-6.885,7.397-13.266,6.476-20.838,6.757l-6.364-0.01v12.125c-0.006,4.88,1.787,7.799,7.233,7.838
		V90.43H2.574V76.149c5.447-0.04,7.311-3.222,7.304-8.102V24.803c0.001-1.032-0.252-7.721-7.282-7.772V2.654h40.352
		c7.605,0,13.012,2.318,16.653,5.184c6.73,5.301,8.073,14.413,8.619,21.159c10.282-8.942,34.64-10.938,38.718,15.825
		c4.402-20.391,19.431-21.935,22.95-21.948c6.316-0.024,17.105,3.792,20.607,14.11V24.265h22.104v8.183
		c1.629-6.177,7.081-9.533,12.61-9.566c5.332-0.032,16.252,5.889,19.055,28.431V21.298c-0.024-4.329-2.67-6.563-7-6.542
		l-0.014-11.97h25.724v48.546c2.346-21.505,14.347-28.384,24.448-28.385c10.258-0.002,17.531,5.719,21.257,13.036
		c4.771,9.364,4.432,19.261,4.145,25.673l-31.299,0.008c-0.111,1.229,0.006,3.295,0.1,5.194
		C241.889,72.182,243.64,77.001,247.811,76.979"/>
	<path clip-path="url(#SVGID_2_)" fill="#00A6DE" d="M32.798,19.258h5.244c4.085,0,6.403,3.431,6.403,10.034
		c0,7.261-1.656,10.123-6.403,10.255h-5.244V19.258z M35.433,36.943h2.687c2.93-0.048,3.623-3.105,3.623-7.455
		c0-0.483,0.324-7.559-3.623-7.568h-2.687V36.943z M173.771,67.404c0,5.427,1.336,9.549,5.141,9.549
		c4.25,0,6.789-5.763,6.789-19.308c0-14.874-2.294-19.978-6.289-20.153c-3.869-0.17-5.844,3.12-5.641,9.905V67.404z M176.448,49.493
		c0-4.581,0.53-8.907,2.632-8.907c2.8,0,3.876,6.647,3.876,17.059c0,9.482-1.251,16.221-4.227,16.221
		c-1.926,0-2.281-4.728-2.281-8.526V49.493z M247.692,38.058c4.17-0.023,5.922,4.683,6.187,10.008c0.089,1.807,0.122,1.887,0,3.234
		h-12.371c-0.123-1.347-0.089-1.427,0-3.234C241.771,42.741,243.522,38.035,247.692,38.058 M244.129,47.032
		c-0.047,0.951-0.066,0.934,0,1.643h7.034c0.063-0.709,0.048-0.692,0-1.643c-0.14-2.8-1.323-6.388-3.519-6.377
		C245.452,40.645,244.268,44.232,244.129,47.032 M84.212,37.663c4.17-0.022,5.789,5.078,6.054,10.403
		c0.09,1.807,0.122,1.887,0,3.234H77.895c-0.122-1.347-0.09-1.427,0-3.234C78.16,42.741,80.042,37.641,84.212,37.663 M80.516,46.919
		c-0.047,0.951-0.065,1.047,0,1.756h7.035c0.064-0.709,0.046-0.805,0-1.756c-0.14-2.801-1.324-6.275-3.518-6.264
		C81.84,40.645,80.655,44.118,80.516,46.919 M131.073,41.024c2.363,0,4.279,7.415,4.279,16.56c0,9.146-1.916,16.56-4.279,16.56
		s-4.279-7.414-4.279-16.56C126.794,48.439,128.71,41.024,131.073,41.024 M124.265,57.584c0,10.789,1.94,19.473,6.808,19.537
		c4.999,0.066,6.807-8.748,6.807-19.537c0-10.79-1.939-19.469-6.807-19.537C126.337,37.981,124.265,46.794,124.265,57.584
		 M84.325,76.979c3.394,0.018,5.185-3.17,5.877-7.228l16.304-0.007c-0.826-4.068-0.923-4.926-1.013-8.086L78.04,61.664
		c-0.112,1.229,0.006,3.294,0.1,5.194C78.405,72.182,80.156,77.001,84.325,76.979 M103.006,64.29
		c0.044,1.412,0.043,1.419,0.248,2.799L87.837,67.09c-0.002,0.203-0.018,0.437-0.041,0.914c-0.14,2.801-1.324,6.389-3.518,6.377
		c-2.194,0.012-3.378-3.576-3.517-6.377c-0.047-0.951-0.216-3.006-0.151-3.715H103.006z M247.81,76.979
		c3.395,0.018,5.186-3.207,5.877-7.264h18.587c-2.338,28.297-41.473,28.523-44.893,6.084v14.611h-26.986v-14.77
		c-2.354,14.44-10.616,16.434-14.237,16.422c-3.037-0.011-10.483-2.508-13.234-10.12l0.263,8.289
		c0.056,5.146,3.343,8.401,6.834,8.869v11.966l-31.487,0.01l-0.003-11.976c2.645-0.074,6.884-2.667,6.929-8.442V68.973
		c-0.966,5.452-5.005,23.083-24.371,23.083c-19.192,0-23.533-18.618-24.355-21.348c-3.585,20.284-17.073,21.402-22.996,21.327
		c-10.64-0.135-17.007-7.455-17.164-7.615c-6.4-6.5-7.632-16.344-7.374-26.957c0-2.137,0.547-6.287,0.739-8.328
		c-6.885,7.396-13.265,6.475-20.838,6.757l-6.364-0.011v12.125c-0.006,4.88,1.787,7.799,7.233,7.838V90.43H2.574V76.149
		c5.447-0.04,7.311-3.222,7.305-8.102V24.802c0.001-1.031-0.253-7.72-7.283-7.772V2.654h40.352c7.605,0,13.013,2.317,16.653,5.184
		c6.73,5.301,8.073,14.413,8.619,21.158c10.282-8.942,34.64-10.937,38.718,15.826c4.403-20.391,19.431-21.935,22.95-21.948
		c6.316-0.024,17.105,3.792,20.607,14.11v-12.72h22.104v8.184c1.628-6.177,7.081-9.533,12.611-9.566
		c5.332-0.032,16.252,5.889,19.054,28.431V21.297c-0.024-4.329-2.67-6.562-7-6.541l-0.013-11.97h25.723v48.546
		c2.345-21.505,14.346-28.384,24.449-28.386c10.257-0.002,17.53,5.72,21.256,13.037c4.771,9.364,4.431,19.26,4.145,25.672
		l-31.3,0.008c-0.11,1.229,0.006,3.294,0.102,5.194C241.889,72.182,243.64,77.001,247.81,76.979 M251.322,67.089
		c-0.003,0.204-0.02,0.438-0.043,0.915c-0.14,2.801-1.322,6.389-3.518,6.377c-2.193,0.012-3.377-3.576-3.516-6.377
		c-0.048-0.951-0.218-3.019-0.152-3.728h31.084c0.385-4.888,1.594-18.25-4.062-29.288c-4.453-8.691-11.913-14.742-23.623-14.74
		c-10.334,0.002-17.612,5.251-21.857,11.803l0.029-31.908h-30.999v17.597c4.329-0.022,6.97,0.372,6.996,4.702v9.735
		c-2.941-6.488-9.613-12.381-17.733-11.925c-3.426,0.192-5.954,1.668-8.663,3.624v-2.244h-27.385v5.624
		c-4.714-4.824-10.315-7.009-17.622-7.009c-11.71,0-19.518,7.351-23.156,15.807c-2.081-6.035-9.046-15.806-22.606-15.804
		c-5.56,0.001-10.728,1.971-14.523,4.317c-0.559-6.952-3.694-14.817-8.835-18.88C56.982,2.401,50.816,0.023,42.589,0H0.001v19.715
		c5.512,0.041,7.281,1.311,7.275,6.755v40.165c0.006,5.272-1.348,6.72-7.276,6.763v20.128l42.582-0.032V73.357
		c-5.863-0.043-7.191-1.49-7.184-6.763v-7.965l6.822,0.037c8.74,0.216,11.753-1.082,14.52-3.255
		c-0.53,3.489-0.267,9.936,0.058,12.392c1.517,12.543,5.309,15.922,8.953,19.622c4.993,5.071,11.861,7.282,18.216,7.319
		c17.497,0.1,22.115-13.548,23.07-15.834c5.848,13.769,17.488,15.878,24.21,15.828c13.279-0.098,18.61-6.327,21.608-11.848v6.833
		c-0.036,4.778-1.11,7.019-6.861,7.126l0.01,17.328h36.679V96.85c-5.561-0.104-6.678-4.072-6.854-6.633
		c3.399,4.469,9.715,4.732,10.456,4.604c2.68,0.261,8.618-0.508,11.593-5.923v4.571h32.209v-6.124
		c4.664,5.006,11.465,7.418,17.819,7.418c10.577,0,25.716-5.799,27.07-27.674H251.322z"/>
	<path clip-path="url(#SVGID_2_)" d="M272.314,26.923c-1.935,0-3.312-1.449-3.312-3.366c0-2.025,1.529-3.366,3.312-3.366
		c1.764,0,3.294,1.341,3.294,3.366S274.078,26.923,272.314,26.923 M272.314,20.776c-1.458,0-2.592,1.143-2.592,2.781
		c0,1.53,0.99,2.781,2.592,2.781c1.44,0,2.574-1.134,2.574-2.781C274.889,21.919,273.755,20.776,272.314,20.776 M271.648,25.483
		h-0.612v-3.726h1.413c0.9,0,1.36,0.315,1.36,1.071c0,0.675-0.415,0.954-0.973,1.017l1.044,1.638h-0.693l-0.963-1.593h-0.576V25.483
		z M272.332,23.368c0.459,0,0.864-0.045,0.864-0.585c0-0.45-0.44-0.504-0.81-0.504h-0.738v1.089H272.332z"/>
</g>
</svg>
