<?xml version="1.0" encoding="utf-8"?>
<!-- Generator: Adobe Illustrator 15.0.2, SVG Export Plug-In  -->
<!DOCTYPE svg PUBLIC "-//W3C//DTD SVG 1.1//EN" "http://www.w3.org/Graphics/SVG/1.1/DTD/svg11.dtd" [
	<!ENTITY ns_flows "http://ns.adobe.com/Flows/1.0/">
]>
<svg version="1.1"
	 xmlns="http://www.w3.org/2000/svg" xmlns:xlink="http://www.w3.org/1999/xlink" xmlns:a="http://ns.adobe.com/AdobeSVGViewerExtensions/3.0/"
	 x="0px" y="0px" width="203px" height="273px" viewBox="0 0 203 273" overflow="visible" enable-background="new 0 0 203 273"
	 xml:space="preserve">
<defs>
</defs>
<g>
	<defs>
		<rect id="SVGID_1_" width="202.633" height="273.35"/>
	</defs>
	<use xlink:href="#SVGID_1_"  overflow="visible" fill="#72267E"/>
	<clipPath id="SVGID_2_">
		<use xlink:href="#SVGID_1_"  overflow="visible"/>
	</clipPath>
	<rect clip-path="url(#SVGID_2_)" fill-rule="evenodd" clip-rule="evenodd" fill="#72267E" width="202.633" height="274.013"/>
</g>
<path fill="#FFFFFF" d="M144.959,106.994c0,38.483-6.717,81.612-44.681,81.612c-35.643,0-42.875-43.129-42.616-80.32
	c0.258-40.548,5.94-84.455,42.873-84.455C137.21,23.831,144.959,66.187,144.959,106.994z M100.278,191.706
	c45.713,0,80.065-39.771,80.065-85.486c0-45.456-33.834-85.488-79.549-85.488c-43.909,0-78.517,41.065-78.517,86.779
	C22.278,152.192,55.595,191.706,100.278,191.706"/>
<path fill="#FFFFFF" d="M97.581,216.292c0,3.824-3,6.001-5.808,6.001c-2.852,0-5.803-2.177-5.803-6.001
	c0-3.82,2.951-5.973,5.803-5.973C94.581,210.319,97.581,212.471,97.581,216.292z M99.952,216.292c0-4.957-4.065-8.006-8.178-8.006
	c-4.111,0-8.173,3.049-8.173,8.006c0,5.009,4.062,8.031,8.173,8.031C95.887,224.323,99.952,221.3,99.952,216.292"/>
<path fill="none" stroke="#FFFFFF" stroke-width="0.4967" d="M97.581,216.292c0,3.824-3,6.001-5.808,6.001
	c-2.852,0-5.803-2.177-5.803-6.001c0-3.82,2.951-5.973,5.803-5.973C94.581,210.319,97.581,212.471,97.581,216.292z M99.952,216.292
	c0-4.957-4.065-8.006-8.178-8.006c-4.111,0-8.173,3.049-8.173,8.006c0,5.009,4.062,8.031,8.173,8.031
	C95.887,224.323,99.952,221.3,99.952,216.292z"/>
<path fill="#FFFFFF" d="M118.17,212.93c0,1.619-1.359,2.347-2.736,2.347h-1.911v-4.692h1.911
	C116.811,210.584,118.17,211.334,118.17,212.93z M120.488,212.93c0-2.927-2.471-4.331-4.648-4.331h-4.641v15.434h2.324v-6.771h2.317
	C118.018,217.262,120.488,215.858,120.488,212.93"/>
<path fill="none" stroke="#FFFFFF" stroke-width="0.4967" d="M118.17,212.93c0,1.619-1.359,2.347-2.736,2.347h-1.911v-4.692h1.911
	C116.811,210.584,118.17,211.334,118.17,212.93z M120.488,212.93c0-2.927-2.471-4.331-4.648-4.331h-4.641v15.434h2.324v-6.771h2.317
	C118.018,217.262,120.488,215.858,120.488,212.93z"/>
<path fill="#FFFFFF" d="M138.411,212.93c0,1.619-1.354,2.347-2.729,2.347h-2.154v-4.692h2.154
	C137.058,210.584,138.411,211.334,138.411,212.93z M143.295,224.033l-5.268-7.138c1.494-0.604,2.707-1.912,2.707-3.965
	c0-2.927-2.465-4.331-4.641-4.331h-4.891v15.434h2.324v-6.771h2.177l4.861,6.771H143.295"/>
<path fill="none" stroke="#FFFFFF" stroke-width="0.4967" d="M138.411,212.93c0,1.619-1.354,2.347-2.729,2.347h-2.154v-4.692h2.154
	C137.058,210.584,138.411,211.334,138.411,212.93z M143.295,224.033l-5.268-7.138c1.494-0.604,2.707-1.912,2.707-3.965
	c0-2.927-2.465-4.331-4.641-4.331h-4.891v15.434h2.324v-6.771h2.177l4.861,6.771H143.295z"/>
<path fill="#FFFFFF" d="M161.439,218.178h-4.428l1.184-2.927c0.316-0.798,0.582-1.497,0.998-2.732h0.046
	c0.411,1.21,0.677,1.911,1.015,2.758L161.439,218.178z M166.256,224.033l-6.582-15.651h-0.846l-6.576,15.651h2.295l1.67-3.99h6
	l1.67,3.99H166.256"/>
<path fill="none" stroke="#FFFFFF" stroke-width="0.4967" d="M161.439,218.178h-4.428l1.184-2.927
	c0.316-0.798,0.582-1.497,0.998-2.732h0.046c0.411,1.21,0.677,1.911,1.015,2.758L161.439,218.178z M166.256,224.033l-6.582-15.651
	h-0.846l-6.576,15.651h2.295l1.67-3.99h6l1.67,3.99H166.256z"/>
<polyline fill="#FFFFFF" points="187.32,224.033 187.32,217.285 179.361,217.285 179.361,224.033 177.021,224.033 177.021,208.599 
	179.361,208.599 179.361,215.277 187.32,215.277 187.32,208.599 189.666,208.599 189.666,224.033 187.32,224.033 "/>
<polygon fill="none" stroke="#FFFFFF" stroke-width="0.4967" points="187.32,224.033 187.32,217.285 179.361,217.285 
	179.361,224.033 177.021,224.033 177.021,208.599 179.361,208.599 179.361,215.277 187.32,215.277 187.32,208.599 189.666,208.599 
	189.666,224.033 "/>
<polyline fill="#D8C1D1" points="20.274,210.618 20.274,224.131 17.927,224.131 17.927,210.618 12.968,210.618 12.968,208.593 
	25.231,208.593 25.231,210.618 20.274,210.618 "/>
<polygon fill="none" stroke="#D8C1D1" stroke-width="0.4967" points="20.274,210.618 20.274,224.131 17.927,224.131 17.927,210.618 
	12.968,210.618 12.968,208.593 25.231,208.593 25.231,210.618 "/>
<polyline fill="#D8C1D1" points="45.94,224.131 45.94,217.338 37.98,217.338 37.98,224.131 35.633,224.131 35.633,208.593 
	37.98,208.593 37.98,215.317 45.94,215.317 45.94,208.593 48.285,208.593 48.285,224.131 45.94,224.131 "/>
<polygon fill="none" stroke="#D8C1D1" stroke-width="0.4967" points="45.94,224.131 45.94,217.338 37.98,217.338 37.98,224.131 
	35.633,224.131 35.633,208.593 37.98,208.593 37.98,215.317 45.94,215.317 45.94,208.593 48.285,208.593 48.285,224.131 "/>
<polyline fill="#D8C1D1" points="60.138,224.131 60.138,208.593 68.457,208.593 68.457,210.618 62.483,210.618 62.483,215.317 
	67.493,215.317 67.493,217.338 62.483,217.338 62.483,222.112 69.306,222.112 69.306,224.131 60.138,224.131 "/>
<polygon fill="none" stroke="#D8C1D1" stroke-width="0.4967" points="60.138,224.131 60.138,208.593 68.457,208.593 68.457,210.618 
	62.483,210.618 62.483,215.317 67.493,215.317 67.493,217.338 62.483,217.338 62.483,222.112 69.306,222.112 69.306,224.131 "/>
<path fill="#D8C1D1" d="M28.16,256.763l-0.459-5.141c-0.167-1.875-0.312-3.604-0.409-5.405h-0.049
	c-0.725,1.534-1.523,3.192-2.372,4.845l-2.951,5.823h-0.868l-2.975-5.772c-0.921-1.803-1.767-3.483-2.37-4.845h-0.049
	c-0.122,1.85-0.265,3.722-0.414,5.402l-0.433,5.093h-2.083l1.333-15.537h1.452l3.676,7.134c0.896,1.754,1.692,3.361,2.37,4.851
	h0.049c0.626-1.467,1.4-3.071,2.322-4.873l3.626-7.111h1.452l1.377,15.537H28.16"/>
<path fill="none" stroke="#D8C1D1" stroke-width="0.4967" d="M28.16,256.763l-0.459-5.141c-0.167-1.875-0.312-3.604-0.409-5.405
	h-0.049c-0.725,1.534-1.523,3.192-2.372,4.845l-2.951,5.823h-0.868l-2.975-5.772c-0.921-1.803-1.767-3.483-2.37-4.845h-0.049
	c-0.122,1.85-0.265,3.722-0.414,5.402l-0.433,5.093h-2.083l1.333-15.537h1.452l3.676,7.134c0.896,1.754,1.692,3.361,2.37,4.851
	h0.049c0.626-1.467,1.4-3.071,2.322-4.873l3.626-7.111h1.452l1.377,15.537H28.16z"/>
<path fill="#D8C1D1" d="M50.658,250.87h-4.43l1.187-2.943c0.314-0.807,0.581-1.512,0.991-2.758h0.048
	c0.413,1.218,0.68,1.929,1.017,2.78L50.658,250.87z M55.468,256.763l-6.578-15.758h-0.846l-6.582,15.758h2.298l1.669-4.021h5.998
	l1.669,4.021H55.468"/>
<path fill="none" stroke="#D8C1D1" stroke-width="0.4967" d="M50.658,250.87h-4.43l1.187-2.943c0.314-0.807,0.581-1.512,0.991-2.758
	h0.048c0.413,1.218,0.68,1.929,1.017,2.78L50.658,250.87z M55.468,256.763l-6.578-15.758h-0.846l-6.582,15.758h2.298l1.669-4.021
	h5.998l1.669,4.021H55.468z"/>
<path fill="#D8C1D1" d="M74.142,257.057c-4.161,0-8.466-2.804-8.466-8.065c0-5.38,4.476-8.085,8.322-8.085
	c2.128,0,3.844,0.517,4.981,1.244l-0.437,2.047c-1.134-0.733-2.659-1.243-4.279-1.243c-3.023,0-6.216,1.996-6.216,6.065
	c0,4.016,3.096,5.989,6.24,5.989c1.427,0,2.541-0.293,3.266-0.807v-3.234h-3.555v-1.903h5.781v6.312
	C78.303,256.566,76.441,257.057,74.142,257.057"/>
<path fill="none" stroke="#D8C1D1" stroke-width="0.4967" d="M74.142,257.057c-4.161,0-8.466-2.804-8.466-8.065
	c0-5.38,4.476-8.085,8.322-8.085c2.128,0,3.844,0.517,4.981,1.244l-0.437,2.047c-1.134-0.733-2.659-1.243-4.279-1.243
	c-3.023,0-6.216,1.996-6.216,6.065c0,4.016,3.096,5.989,6.24,5.989c1.427,0,2.541-0.293,3.266-0.807v-3.234h-3.555v-1.903h5.781
	v6.312C78.303,256.566,76.441,257.057,74.142,257.057z"/>
<path fill="#D8C1D1" d="M100.362,250.87h-4.426l1.183-2.943c0.314-0.807,0.581-1.512,0.994-2.758h0.049
	c0.409,1.218,0.675,1.929,1.014,2.78L100.362,250.87z M105.175,256.763l-6.58-15.758h-0.846l-6.579,15.758h2.3l1.665-4.021h6.001
	l1.671,4.021H105.175"/>
<path fill="none" stroke="#D8C1D1" stroke-width="0.4967" d="M100.362,250.87h-4.426l1.183-2.943
	c0.314-0.807,0.581-1.512,0.994-2.758h0.049c0.409,1.218,0.675,1.929,1.014,2.78L100.362,250.87z M105.175,256.763l-6.58-15.758
	h-0.846l-6.579,15.758h2.3l1.665-4.021h6.001l1.671,4.021H105.175z"/>
<path fill="#D8C1D1" d="M115.891,256.763V256.2l5.076-8.984c0.801-1.388,1.596-2.8,2.346-3.993l-0.021-0.025h-7.017v-1.971h10.157
	v0.558l-5.098,8.962c-0.729,1.27-1.597,2.778-2.352,4.021l0.027,0.022h7.816v1.974H115.891"/>
<path fill="none" stroke="#D8C1D1" stroke-width="0.4967" d="M115.891,256.763V256.2l5.076-8.984c0.801-1.388,1.596-2.8,2.346-3.993
	l-0.021-0.025h-7.017v-1.971h10.157v0.558l-5.098,8.962c-0.729,1.27-1.597,2.778-2.352,4.021l0.027,0.022h7.816v1.974H115.891z"/>
<rect x="138.891" y="241.226" fill="#D8C1D1" width="2.346" height="15.537"/>
<rect x="138.891" y="241.226" fill="none" stroke="#D8C1D1" stroke-width="0.4967" width="2.346" height="15.537"/>
<path fill="#D8C1D1" d="M167.389,257.105l-6.729-7.307c-1.404-1.512-2.898-3.192-4.061-4.63l-0.051,0.027
	c0.051,1.41,0.051,2.51,0.051,3.652v7.915h-2.352v-15.537h1.624l5.877,6.503c1.331,1.482,2.803,3.112,3.993,4.602l0.045-0.022
	c-0.045-1.195-0.045-2.487-0.045-3.632v-7.45h2.346v15.879H167.389"/>
<path fill="none" stroke="#D8C1D1" stroke-width="0.4967" d="M167.389,257.105l-6.729-7.307c-1.404-1.512-2.898-3.192-4.061-4.63
	l-0.051,0.027c0.051,1.41,0.051,2.51,0.051,3.652v7.915h-2.352v-15.537h1.624l5.877,6.503c1.331,1.482,2.803,3.112,3.993,4.602
	l0.045-0.022c-0.045-1.195-0.045-2.487-0.045-3.632v-7.45h2.346v15.879H167.389z"/>
<polyline fill="#D8C1D1" points="180.738,256.763 180.738,241.226 189.057,241.226 189.057,243.245 183.084,243.245 
	183.084,247.949 188.094,247.949 188.094,249.967 183.084,249.967 183.084,254.742 189.902,254.742 189.902,256.763 
	180.738,256.763 "/>
<polygon fill="none" stroke="#D8C1D1" stroke-width="0.4967" points="180.738,256.763 180.738,241.226 189.057,241.226 
	189.057,243.245 183.084,243.245 183.084,247.949 188.094,247.949 188.094,249.967 183.084,249.967 183.084,254.742 
	189.902,254.742 189.902,256.763 "/>
</svg>
