<?xml version="1.0" encoding="utf-8"?>
<!-- Generator: Adobe Illustrator 15.0.2, SVG Export Plug-In  -->
<!DOCTYPE svg PUBLIC "-//W3C//DTD SVG 1.1//EN" "http://www.w3.org/Graphics/SVG/1.1/DTD/svg11.dtd" [
	<!ENTITY ns_flows "http://ns.adobe.com/Flows/1.0/">
]>
<svg version="1.1"
	 xmlns="http://www.w3.org/2000/svg" xmlns:xlink="http://www.w3.org/1999/xlink" xmlns:a="http://ns.adobe.com/AdobeSVGViewerExtensions/3.0/"
	 x="0px" y="0px" width="275px" height="72px" viewBox="0 0 275 72" overflow="visible" enable-background="new 0 0 275 72"
	 xml:space="preserve">
<defs>
</defs>
<g>
	<defs>
		<rect id="SVGID_5_" width="274.504" height="72.248"/>
	</defs>
	<clipPath id="SVGID_6_">
		<use xlink:href="#SVGID_5_"  overflow="visible"/>
	</clipPath>
	<path clip-path="url(#SVGID_6_)" fill="#807F83" d="M25.758,70.467V3.439h-24.1C0.741,3.439,0,2.698,0,1.783
		C0,0.87,0.741,0.125,1.658,0.125h25.759h25.757c0.915,0,1.656,0.745,1.656,1.658c0,0.915-0.741,1.656-1.656,1.656H29.072v67.028
		c0,0.914-0.741,1.656-1.655,1.656C26.5,72.123,25.758,71.381,25.758,70.467"/>
	<path clip-path="url(#SVGID_6_)" fill="#807F83" d="M63.262,70.467L63.262,70.467c0,0.914,0.74,1.656,1.658,1.656
		c0.914,0,1.655-0.742,1.655-1.656V37.778h43.048v32.688c0,0.914,0.741,1.656,1.659,1.656c0.914,0,1.656-0.742,1.656-1.656V1.781
		c0-0.914-0.742-1.656-1.656-1.656c-0.918,0-1.659,0.742-1.659,1.656v32.682H66.575V1.781c0-0.914-0.741-1.656-1.655-1.656
		c-0.918,0-1.658,0.742-1.658,1.656V70.467z"/>
</g>
<g>
	<defs>
		<path id="SVGID_4_" d="M156.534,0.131c-18.3,0.339-33.259,14.323-35.129,32.21v0.799c0.06,0.286,0.195,0.554,0.394,0.776
			c0.319,0.344,0.761,0.539,1.23,0.539h57.792c0.918,0,1.662-0.741,1.662-1.654c0-0.921-0.744-1.66-1.662-1.66h-55.917
			c2.393-15.682,15.95-27.704,32.309-27.701c14.486-0.003,26.771,9.426,31.057,22.473c0.286,0.867,1.223,1.343,2.096,1.058
			c0.87-0.285,1.34-1.226,1.053-2.093c-4.654-14.173-17.867-24.457-33.526-24.747H156.534z"/>
	</defs>
	<clipPath id="SVGID_7_">
		<use xlink:href="#SVGID_4_"  overflow="visible"/>
	</clipPath>
	
		<linearGradient id="SVGID_8_" gradientUnits="userSpaceOnUse" x1="0" y1="72.248" x2="1" y2="72.248" gradientTransform="matrix(70.1338 0 0 -70.1338 121.4375 5084.3403)">
		<stop  offset="0" style="stop-color:#C69930"/>
		<stop  offset="0.1011" style="stop-color:#D09B2C"/>
		<stop  offset="0.3" style="stop-color:#EEE8BD"/>
		<stop  offset="0.35" style="stop-color:#F5EDB8"/>
		<stop  offset="0.4" style="stop-color:#F6EA91"/>
		<stop  offset="0.4126" style="stop-color:#EAD77E"/>
		<stop  offset="0.4336" style="stop-color:#DEC263"/>
		<stop  offset="0.4564" style="stop-color:#D4B24D"/>
		<stop  offset="0.4814" style="stop-color:#CEA63E"/>
		<stop  offset="0.5096" style="stop-color:#C99E34"/>
		<stop  offset="0.5437" style="stop-color:#C79A30"/>
		<stop  offset="0.6" style="stop-color:#C69930"/>
		<stop  offset="0.643" style="stop-color:#CBA23D"/>
		<stop  offset="0.7147" style="stop-color:#D4B158"/>
		<stop  offset="0.7868" style="stop-color:#DCBE6E"/>
		<stop  offset="0.8586" style="stop-color:#E2C77D"/>
		<stop  offset="0.9299" style="stop-color:#E6CD85"/>
		<stop  offset="1" style="stop-color:#E7CF88"/>
	</linearGradient>
	<rect x="121.405" y="0.131" clip-path="url(#SVGID_7_)" fill="url(#SVGID_8_)" width="70.3" height="34.324"/>
</g>
<g>
	<defs>
		<rect id="SVGID_3_" width="274.504" height="72.248"/>
	</defs>
	<clipPath id="SVGID_9_">
		<use xlink:href="#SVGID_3_"  overflow="visible"/>
	</clipPath>
	<path clip-path="url(#SVGID_9_)" fill="none" stroke="#C69930" stroke-width="0.25" d="M123.029,34.455
		c-0.469,0-0.912-0.195-1.23-0.539c-0.313-0.35-0.467-0.813-0.424-1.277c1.756-18.252,17.127-32.514,35.837-32.514
		c15.955,0,29.484,10.375,34.205,24.753c0.287,0.867-0.184,1.808-1.053,2.093c-0.873,0.285-1.809-0.191-2.094-1.058
		c-4.289-13.047-16.572-22.476-31.059-22.474c-16.359-0.002-29.916,12.02-32.309,27.702h55.916c0.918,0,1.662,0.74,1.662,1.66
		c0,0.914-0.744,1.654-1.662,1.654H123.029z"/>
</g>
<g>
	<defs>
		<path id="SVGID_2_" d="M123.025,37.818c-0.466,0-0.912,0.195-1.226,0.545c-0.315,0.344-0.465,0.805-0.42,1.271
			c1.655,17.222,15.446,30.877,32.727,32.355l6.373-0.015c14.513-1.306,26.545-11.21,30.939-24.583
			c0.287-0.871-0.189-1.809-1.053-2.096c-0.873-0.285-1.809,0.19-2.096,1.057c-4.286,13.037-16.57,22.461-31.057,22.453
			c-16.359,0.008-29.911-12.007-32.309-27.676h55.919c0.915,0,1.659-0.738,1.659-1.658c0-0.908-0.744-1.654-1.659-1.654H123.025z"/>
	</defs>
	<clipPath id="SVGID_10_">
		<use xlink:href="#SVGID_2_"  overflow="visible"/>
	</clipPath>
	
		<linearGradient id="SVGID_11_" gradientUnits="userSpaceOnUse" x1="0" y1="72.2422" x2="1" y2="72.2422" gradientTransform="matrix(71.303 -0.1576 -0.1576 -71.303 132.0113 5206.1255)">
		<stop  offset="0" style="stop-color:#A3A5A8"/>
		<stop  offset="0.1011" style="stop-color:#A6A8AB"/>
		<stop  offset="0.3" style="stop-color:#E5E6E7"/>
		<stop  offset="0.35" style="stop-color:#EAEBEC"/>
		<stop  offset="0.4" style="stop-color:#E5E6E7"/>
		<stop  offset="0.4076" style="stop-color:#DEDFE0"/>
		<stop  offset="0.4336" style="stop-color:#C8CACC"/>
		<stop  offset="0.4624" style="stop-color:#B7B9BB"/>
		<stop  offset="0.4949" style="stop-color:#ACAEB0"/>
		<stop  offset="0.5344" style="stop-color:#A5A7AA"/>
		<stop  offset="0.6" style="stop-color:#A3A5A8"/>
		<stop  offset="0.6769" style="stop-color:#B2B4B7"/>
		<stop  offset="0.7867" style="stop-color:#C3C5C7"/>
		<stop  offset="0.8953" style="stop-color:#CECFD1"/>
		<stop  offset="1" style="stop-color:#D1D3D4"/>
	</linearGradient>
	<polygon clip-path="url(#SVGID_10_)" fill="url(#SVGID_11_)" points="121.258,37.818 191.705,37.662 191.78,71.99 121.334,72.146 	
		"/>
</g>
<g>
	<defs>
		<rect id="SVGID_1_" width="274.504" height="72.248"/>
	</defs>
	<clipPath id="SVGID_12_">
		<use xlink:href="#SVGID_1_"  overflow="visible"/>
	</clipPath>
	<path clip-path="url(#SVGID_12_)" fill="none" stroke="#A7A9AC" stroke-width="0.25" d="M180.822,41.133L180.822,41.133
		c0.916,0,1.66-0.74,1.66-1.66c0-0.91-0.744-1.656-1.66-1.656h-57.797c-0.467,0-0.912,0.197-1.226,0.547
		c-0.315,0.344-0.465,0.805-0.42,1.271c1.754,18.242,17.124,32.484,35.833,32.488c15.951-0.004,29.484-10.365,34.205-24.73
		c0.287-0.873-0.188-1.809-1.053-2.096c-0.873-0.283-1.807,0.19-2.094,1.057c-4.289,13.037-16.572,22.459-31.059,22.455
		c-16.359,0.004-29.911-12.008-32.309-27.676H180.822z"/>
	<path clip-path="url(#SVGID_12_)" fill="#807F83" d="M201.482,70.467V1.783c0-0.916,0.742-1.658,1.658-1.658
		c0.914,0,1.656,0.742,1.656,1.658v68.684c0,0.914-0.742,1.656-1.656,1.656C202.225,72.123,201.482,71.381,201.482,70.467"/>
	<path clip-path="url(#SVGID_12_)" fill="#807F83" d="M214.244,71.99c-0.844-0.352-1.241-1.326-0.883-2.168l28.977-68.685
		c0.256-0.613,0.861-1.013,1.527-1.013s1.268,0.4,1.523,1.013l28.984,68.685c0.355,0.842-0.041,1.816-0.885,2.168
		c-0.846,0.357-1.814-0.037-2.17-0.879l-14.065-33.332h-26.776l-14.061,33.332c-0.268,0.633-0.883,1.012-1.527,1.012
		C214.672,72.123,214.455,72.08,214.244,71.99 M255.857,34.463L243.865,6.047l-11.99,28.416H255.857z"/>
</g>
</svg>
