<?xml version="1.0" encoding="utf-8"?>
<!-- Generator: Adobe Illustrator 15.0.2, SVG Export Plug-In  -->
<!DOCTYPE svg PUBLIC "-//W3C//DTD SVG 1.1//EN" "http://www.w3.org/Graphics/SVG/1.1/DTD/svg11.dtd" [
	<!ENTITY ns_flows "http://ns.adobe.com/Flows/1.0/">
]>
<svg version="1.1"
	 xmlns="http://www.w3.org/2000/svg" xmlns:xlink="http://www.w3.org/1999/xlink" xmlns:a="http://ns.adobe.com/AdobeSVGViewerExtensions/3.0/"
	 x="0px" y="0px" width="400px" height="207px" viewBox="0 0 400 207" overflow="visible" enable-background="new 0 0 400 207"
	 xml:space="preserve">
<defs>
</defs>
<polygon fill="#231F20" points="389.006,103.028 389.006,98.841 387.44,98.841 387.44,98.281 391.203,98.281 391.203,98.841 
	389.629,98.841 389.629,103.028 "/>
<g>
	<defs>
		<rect id="SVGID_1_" width="400" height="206.945"/>
	</defs>
	<clipPath id="SVGID_2_">
		<use xlink:href="#SVGID_1_"  overflow="visible"/>
	</clipPath>
	<path clip-path="url(#SVGID_2_)" fill="#231F20" d="M391.828,103.028v-4.747h0.944l1.122,3.362c0.104,0.308,0.176,0.548,0.226,0.7
		c0.054-0.171,0.138-0.424,0.251-0.759l1.139-3.304h0.842v4.747h-0.603v-3.972l-1.378,3.972h-0.569l-1.371-4.038v4.038H391.828z"/>
	<path clip-path="url(#SVGID_2_)" fill="#00A5E8" d="M207.167,103.088c0,56.467-45.777,102.242-102.247,102.242
		c-56.462,0-102.24-45.775-102.24-102.242C2.68,46.616,48.458,0.842,104.92,0.842C161.39,0.842,207.167,46.616,207.167,103.088"/>
	<path clip-path="url(#SVGID_2_)" fill="#231F20" d="M221.646,45.98V22.709h10.466v20.254c0,4.006,0.415,7.912,5.673,7.912
		c5.261,0,5.679-3.906,5.679-7.912V22.709h10.459V45.98c0,9.007-5.775,14.005-16.138,14.005
		C227.111,59.985,221.646,54.987,221.646,45.98"/>
	<path clip-path="url(#SVGID_2_)" fill="#231F20" d="M256.738,54.674l5.053-6.973c1.876,2.234,4.998,4.268,8.589,4.268
		c2.708,0,4.323-1.145,4.323-3.281c0-2.553-2.344-3.279-6.299-4.478c-5.312-1.616-9.995-4.374-9.995-10.671
		c0-6.924,5.671-11.559,13.69-11.559c5.567,0,9.79,1.717,12.441,4.215l-4.739,6.978c-1.507-1.716-4.061-3.175-7.183-3.175
		c-2.704,0-3.851,1.094-3.851,2.553c0,2.287,2.758,2.911,5.78,3.851c5.931,1.872,10.513,4.581,10.513,11.3
		c0,7.025-5.046,12.285-14.159,12.285C264.186,59.986,258.979,57.121,256.738,54.674"/>
	<path clip-path="url(#SVGID_2_)" fill="#231F20" d="M299.122,22.709h11.506l13.586,36.548h-10.879l-1.721-5.259H297.82
		l-1.666,5.259h-10.619L299.122,22.709z M308.962,45.668l-2.812-8.799c-0.574-1.717-1.039-3.905-1.252-5.468h-0.311
		c-0.208,1.562-0.677,3.751-1.246,5.468l-2.812,8.799H308.962z"/>
	<polygon clip-path="url(#SVGID_2_)" fill="#231F20" points="230.812,75.027 221.804,75.027 221.804,66.541 250.275,66.541 
		250.275,75.027 241.274,75.027 241.274,103.088 230.812,103.088 	"/>
	<path clip-path="url(#SVGID_2_)" fill="#231F20" d="M251.01,84.865c0-9.004,6.458-19.053,20.045-19.053
		c13.644,0,20.103,10.049,20.103,19.053c0,8.955-6.459,18.95-20.103,18.95C257.468,103.815,251.01,93.82,251.01,84.865
		 M280.374,84.865c0-6.558-4.264-9.941-9.37-9.941c-4.997,0-9.267,3.384-9.267,9.941c0,6.508,4.27,9.843,9.267,9.843
		C276.11,94.708,280.374,91.373,280.374,84.865"/>
	<path clip-path="url(#SVGID_2_)" fill="#231F20" d="M294.906,66.541h13.482c12.913,0,20.304,6.871,20.304,18.272
		c0,11.196-7.602,18.274-20.304,18.274h-13.482V66.541z M305.371,94.654h2.239c6.714,0,10.305-3.229,10.305-9.841
		c0-6.611-3.591-9.837-10.305-9.837h-2.239V94.654z"/>
	<path clip-path="url(#SVGID_2_)" fill="#231F20" d="M340.826,66.541h11.506l13.587,36.547h-10.874l-1.721-5.257h-13.8l-1.666,5.257
		H327.24L340.826,66.541z M350.671,89.501l-2.814-8.798c-0.573-1.721-1.041-3.906-1.25-5.471h-0.31
		c-0.21,1.564-0.678,3.75-1.251,5.471l-2.813,8.798H350.671z"/>
	<path clip-path="url(#SVGID_2_)" fill="#231F20" d="M372.381,90.072L358.74,66.541h11.455l4.944,9.005
		c1.04,1.926,2.502,4.844,2.812,6.769h0.208c0.31-1.925,1.771-4.843,2.813-6.769l4.948-9.005h11.137l-13.641,23.531v13.016h-11.037
		V90.072z"/>
	<path clip-path="url(#SVGID_2_)" fill="#231F20" d="M232.692,127.191l-0.902-2.117h-3.655l-0.898,2.117h-1.628l4.267-9.385h0.227
		l4.259,9.385H232.692z M229.965,120.727l-1.315,3.096h2.629L229.965,120.727z"/>
	<path clip-path="url(#SVGID_2_)" fill="#231F20" d="M320.107,127.346c-2.93,0-4.988-2.02-4.988-4.775
		c0-2.742,2.088-4.785,4.988-4.785c1.147,0,2.197,0.367,2.984,0.844l-0.548,1.342c-0.732-0.42-1.645-0.709-2.461-0.709
		c-2.035,0-3.27,1.355-3.27,3.309c0,1.947,1.273,3.297,3.308,3.297c0.819,0,1.782-0.287,2.523-0.734l0.48,1.344
		C322.355,126.965,321.255,127.346,320.107,127.346"/>
	<path clip-path="url(#SVGID_2_)" fill="#231F20" d="M329.504,127.346c-2.675,0-4.642-2.033-4.642-4.773
		c0-2.754,2.052-4.787,4.729-4.787c2.68,0,4.633,2.033,4.633,4.787C334.225,125.312,332.185,127.346,329.504,127.346
		 M329.554,119.201c-1.766,0-2.992,1.436-2.992,3.371c0,1.918,1.227,3.369,2.992,3.369c1.756,0,2.98-1.451,2.98-3.369
		C332.534,120.637,331.31,119.201,329.554,119.201"/>
	<polygon clip-path="url(#SVGID_2_)" fill="#231F20" points="344.141,127.193 344.012,121.646 341.099,126.07 340.904,126.07 
		337.962,121.637 337.862,127.193 336.306,127.193 336.699,117.82 336.938,117.801 341.044,123.938 345.05,117.801 345.305,117.82 
		345.693,127.193 	"/>
	<path clip-path="url(#SVGID_2_)" fill="#231F20" d="M351.27,124.215c-0.302,0-0.619-0.023-0.917-0.039v3.02h-1.583v-9.17
		c0.817-0.105,1.587-0.15,2.346-0.15c2.542,0,3.841,1.387,3.841,3.117C354.956,122.877,353.634,124.215,351.27,124.215
		 M351.386,119.328c-0.354,0-0.712,0.023-1.033,0.074v3.387c0.31,0.021,0.604,0.047,0.879,0.047c1.428,0,2.084-0.744,2.084-1.795
		C353.315,120.133,352.675,119.328,351.386,119.328"/>
	<polygon clip-path="url(#SVGID_2_)" fill="#231F20" points="381.343,123.303 381.343,127.191 379.761,127.191 379.761,123.293 
		376.503,117.938 378.312,117.938 380.58,121.852 382.832,117.938 384.599,117.938 	"/>
	<path clip-path="url(#SVGID_2_)" fill="#231F20" d="M362.666,127.191l-0.896-2.117h-3.661l-0.896,2.117h-1.633l4.27-9.381h0.227
		l4.259,9.381H362.666z M359.937,120.727l-1.31,3.096h2.625L359.937,120.727z"/>
	<polygon clip-path="url(#SVGID_2_)" fill="#231F20" points="374.11,127.369 368.312,121.262 368.312,127.193 366.73,127.193 
		366.73,117.807 366.985,117.76 372.711,123.785 372.711,117.936 374.285,117.936 374.285,127.336 	"/>
	<path clip-path="url(#SVGID_2_)" fill="#231F20" d="M248.791,122.295v4.037c-0.984,0.648-2.06,1.014-3.449,1.014
		c-2.638,0-4.912-1.92-4.912-4.773c0-2.881,2.309-4.791,4.912-4.791c1.364,0,2.34,0.377,3.286,0.965l-0.72,1.26
		c-0.745-0.479-1.632-0.768-2.487-0.768c-2.109,0-3.303,1.49-3.303,3.334c0,1.969,1.458,3.373,3.286,3.373
		c0.8,0,1.327-0.141,1.876-0.443v-1.82h-2.164v-1.387H248.791z"/>
	<path clip-path="url(#SVGID_2_)" fill="#231F20" d="M257.682,127.191l-0.901-2.117h-3.658l-0.903,2.117h-1.624l4.265-9.381h0.226
		l4.257,9.381H257.682z M254.952,120.727l-1.314,3.096h2.628L254.952,120.727z"/>
	<polygon clip-path="url(#SVGID_2_)" fill="#231F20" points="269.115,127.369 263.323,121.262 263.323,127.193 261.737,127.193 
		261.737,117.807 261.997,117.76 267.714,123.785 267.714,117.936 269.291,117.936 269.291,127.336 	"/>
	<polygon clip-path="url(#SVGID_2_)" fill="#231F20" points="279.822,127.369 274.025,121.262 274.025,127.193 272.447,127.193 
		272.447,117.807 272.699,117.76 278.421,123.785 278.421,117.936 279.997,117.936 279.997,127.336 	"/>
	<polygon clip-path="url(#SVGID_2_)" fill="#231F20" points="283.154,127.193 283.154,117.936 288.8,117.936 288.8,119.373 
		284.732,119.373 284.732,121.797 288.407,121.797 288.407,123.189 284.732,123.189 284.732,125.754 288.8,125.754 288.8,127.193 	
		"/>
	<polygon clip-path="url(#SVGID_2_)" fill="#231F20" points="295.749,119.377 295.749,127.195 294.166,127.195 294.166,119.377 
		291.224,119.377 291.224,117.936 298.679,117.936 298.679,119.377 	"/>
	<polygon clip-path="url(#SVGID_2_)" fill="#231F20" points="305.099,119.377 305.099,127.195 303.517,127.195 303.517,119.377 
		300.574,119.377 300.574,117.936 308.028,117.936 308.028,119.377 	"/>
</g>
</svg>
