<?xml version="1.0" encoding="utf-8"?>
<!-- Generator: Adobe Illustrator 15.0.2, SVG Export Plug-In  -->
<!DOCTYPE svg PUBLIC "-//W3C//DTD SVG 1.1//EN" "http://www.w3.org/Graphics/SVG/1.1/DTD/svg11.dtd" [
	<!ENTITY ns_flows "http://ns.adobe.com/Flows/1.0/">
]>
<svg version="1.1"
	 xmlns="http://www.w3.org/2000/svg" xmlns:xlink="http://www.w3.org/1999/xlink" xmlns:a="http://ns.adobe.com/AdobeSVGViewerExtensions/3.0/"
	 x="0px" y="0px" width="187px" height="86px" viewBox="0 0 187 86" overflow="visible" enable-background="new 0 0 187 86"
	 xml:space="preserve">
<defs>
</defs>
<g>
	<defs>
		<rect id="SVGID_1_" width="187.086" height="85.572"/>
	</defs>
	<clipPath id="SVGID_2_">
		<use xlink:href="#SVGID_1_"  overflow="visible"/>
	</clipPath>
	<path clip-path="url(#SVGID_2_)" fill-rule="evenodd" clip-rule="evenodd" d="M71.265,0l-8.176,85.572H40.606l-5.178-44.694
		l-5.041,44.694H8.448L0,0h17.441l3.952,59.001C22.075,44.011,23.846,24.254,26.299,0h18.667l3.816,60.908
		C49.735,41.15,51.37,20.848,53.551,0H71.265z"/>
	<path clip-path="url(#SVGID_2_)" fill-rule="evenodd" clip-rule="evenodd" d="M142.121,0l-8.177,85.572h-22.211
		c-2.043-12.672-3.813-27.662-5.45-44.694l-5.042,44.694H79.032L71.128,0H88.57l3.816,59.001C92.931,45.238,94.43,25.617,97.154,0
		h18.396l4.088,60.908c1.226-22.755,2.998-42.922,5.042-60.908H142.121z"/>
	<path clip-path="url(#SVGID_2_)" fill-rule="evenodd" clip-rule="evenodd" d="M145.526,0v85.57h22.483l9.811-0.817
		c2.045-0.545,3.815-1.361,5.18-2.998c1.635-1.361,2.588-3.406,3.269-5.857l0.818-15.67V30.385l-0.681-16.351
		c-0.138-2.725-1.363-5.178-2.861-7.494c-1.636-2.18-3.952-3.815-7.086-4.906l-10.22-1.362L145.526,0z M166.239,14.988l1.361,0.409
		l1.364,2.589l0.271,7.494v33.111l-0.953,10.492l-2.044,1.5l-2.727,0.271V14.716L166.239,14.988z"/>
</g>
</svg>
